<?xml version="1.0" encoding="UTF-8"?>
<!DOCTYPE svg PUBLIC "-//W3C//DTD SVG 1.1//EN" "http://www.w3.org/Graphics/SVG/1.1/DTD/svg11.dtd">
<!-- Creator: CorelDRAW Home & Student X7 -->
<svg xmlns="http://www.w3.org/2000/svg" xml:space="preserve" width="30.001mm" height="30.001mm" version="1.1" style="shape-rendering:geometricPrecision; text-rendering:geometricPrecision; image-rendering:optimizeQuality; fill-rule:evenodd; clip-rule:evenodd"
viewBox="0 0 3000 3000"
 xmlns:xlink="http://www.w3.org/1999/xlink">
 <defs>
  <style type="text/css">
   <![CDATA[
    .str0 {stroke:#FF7A00;stroke-width:0.100001}
    .fil1 {fill:#FEFEFE}
    .fil0 {fill:#FF7A00}
   ]]>
  </style>
 </defs>
 <g id="__x0023_Layer_x0020_1">
  <metadata id="CorelCorpID_0Corel-Layer"/>
  <g id="_619511912">
   <rect class="fil0 str0" width="3000" height="3000"/>
   <path class="fil1" d="M1845 1634c5,-2 4,-2 2,3l8 1c9,23 -3,6 18,35 30,39 28,20 41,40 12,1 37,1 38,5 15,-3 33,-1 48,-1l37 -2c9,-19 3,-1 25,-20 4,-3 3,-2 6,-4 0,0 2,-1 3,-1 7,-4 4,-10 10,-21 3,-4 4,-4 6,-7 3,-4 3,-7 5,-11 7,-3 7,-2 14,-6 7,-5 4,-4 14,-6l118 -1c9,12 6,21 6,39 0,23 -1,16 -11,25 -1,20 1,19 -16,23 0,10 0,12 -11,11 1,4 2,3 -2,2 1,6 1,4 0,10 -1,5 2,3 -2,4 1,11 -1,14 -12,13 -1,5 1,2 -2,6 -2,3 -1,1 -4,3 -11,8 -23,18 -31,16 -8,21 2,12 -26,16 0,0 -1,1 -1,2 -8,13 -2,6 -11,10 -8,4 -6,6 -13,10 -6,3 -11,3 -17,7 -23,16 -76,10 -105,10 -112,1 -79,-9 -105,-12 -7,-1 -12,-2 -20,-3 -18,-3 -7,-11 -30,-14 -7,-13 2,-10 -28,-13l-1 -11c-22,-2 -25,-4 -28,-26l-12 -1 -3 -13c-14,0 -7,2 -15,4 -6,2 -9,0 -14,-2l10 -12c-2,-4 -2,-5 -5,-9 -10,-17 -11,-3 -13,-22 -5,-41 -7,-13 -13,-35 -3,-11 0,-10 -7,-18 -13,-13 -4,-26 -8,-39 -2,-7 -6,-5 -9,-12 -3,-7 -3,-102 -1,-117 1,-10 3,-9 6,-15 5,-10 3,-26 4,-32 3,-14 0,-4 5,-6 -1,-5 -3,-4 1,-10 4,-6 3,-3 7,-4 -1,-17 4,-23 15,-27 -2,-11 -1,-16 0,-27l13 -1c2,-18 6,-6 12,-15 3,-5 -1,-5 3,-9 4,-5 0,1 10,-5 -1,-17 -2,-18 9,-25 6,-4 12,-10 19,-15 7,-5 15,-7 22,-11 11,-6 1,-11 20,-13 24,-2 14,-2 26,-10 5,-3 8,-3 13,-6 4,-3 2,-4 8,-7 27,-12 36,8 54,-13 35,-2 61,-2 97,0 8,10 7,9 25,10 46,0 25,-6 44,12 5,5 6,5 8,13 29,2 49,-2 53,26 13,4 9,5 15,15 13,0 7,-1 15,-4 12,20 1,16 24,30l0 24c5,4 2,2 7,4 9,3 0,-1 4,1 3,24 7,5 14,26 10,29 15,-10 15,92 17,14 11,15 12,53 0,39 -6,26 -13,38 -5,7 1,3 -7,9 -9,5 -170,3 -196,3 -25,0 -186,-2 -195,1 -2,4 -1,0 -2,5 -2,8 3,25 0,37zm-1227 166l1 24c-16,12 -38,8 -67,8 -16,0 -61,1 -73,-1 -2,-3 -3,-7 -4,-9 -5,-9 0,-1 -7,-7 -6,-7 -5,-13 -5,-24l1 -388c0,-2 0,-4 -1,-6 0,-1 0,-2 0,-2l-1 -6c-17,5 -47,3 -66,2 -41,-2 -25,-46 -27,-104 -1,-23 -1,-19 16,-31 4,-3 7,-5 12,-6 30,-5 97,0 131,0 21,0 46,-2 67,0 17,2 23,23 24,24 3,3 8,5 10,7 3,31 1,364 1,430 0,28 5,47 -8,54 2,7 3,14 5,20 2,7 3,10 0,16l-9 -1zm601 -471l12 2 1 25c3,1 7,2 10,3 1,20 4,40 4,62 -1,57 2,379 -1,396 -2,21 -25,15 -60,14 -40,0 -92,11 -95,-22 -5,-55 5,-353 -5,-371 -14,-24 -9,-32 -20,-44 -3,-3 -6,-3 -10,-6 -6,-4 -3,-3 -8,-9 -16,-2 -33,-1 -49,-3 -8,0 -15,-3 -25,-2 -6,1 -13,4 -22,6 -2,6 -3,8 -7,12l-17 0c-6,8 -2,6 -10,13 -5,4 -1,0 -5,6 -14,20 -4,-7 -15,22 -4,10 -6,9 -12,14 3,12 -2,44 -2,59l-1 291c0,44 -11,35 -107,35 -14,0 -33,2 -45,-2 -14,-6 -13,-17 -13,-35l0 -503c0,-52 32,-41 71,-41 73,0 86,-19 86,48 0,12 1,14 12,15 5,-6 0,-4 6,-10 4,-3 4,1 10,-7 8,-11 3,-3 10,-9 6,-4 3,-5 6,-11l22 -3c0,-1 1,-2 1,-2l7 -13c3,-3 2,-2 5,-5 10,-9 15,-5 44,-6 10,-13 21,-11 43,-11l50 0c1,16 5,10 33,11 22,1 -1,14 39,16l4 11c5,0 15,0 18,1 11,3 -1,6 13,15 7,5 8,11 7,24 11,0 10,0 18,-2 -6,5 -5,5 -3,16zm1288 -44c2,-2 5,-4 8,-5 9,10 -5,6 11,9 3,-5 3,-4 4,-13l22 -1c8,-10 -3,-14 20,-13 0,-19 25,-14 49,-14 18,-1 50,-2 63,3 2,32 6,114 -2,139 -23,2 -93,-1 -104,4 -5,2 -5,5 -9,8 -7,3 -11,1 -17,3 -6,3 -4,4 -9,9 -4,3 -7,4 -11,7 -10,9 -4,12 -15,21 -5,4 -4,0 -6,10 -2,8 0,9 -5,14 -5,5 -6,1 -8,11 0,5 1,11 0,18l-13 3c3,22 1,63 1,88 0,23 2,231 -2,241 -2,2 -8,10 -10,12 -15,-6 12,-7 -33,-7l-82 0c-21,0 -21,3 -31,-10l1 -439c-1,-24 -1,-49 -1,-73 0,-12 -4,-55 15,-58 35,0 80,-5 116,-2 38,4 22,44 28,91 6,-33 27,-27 28,-40 2,-14 1,-4 -6,-12 0,-1 -1,-3 -2,-4zm-1917 -105c-3,7 -6,10 -15,11l-61 1c-4,-1 -3,0 -6,-1l-4 -3c-13,4 -4,0 -6,-2 -4,1 -4,2 -3,-2 -4,1 -3,2 -2,-2 -4,1 -3,2 -3,-2 -5,-2 -2,-1 -4,-4 -4,0 -1,2 -8,-1l-1 -10 -3 0c-7,-2 -6,-2 -10,-5l-1 -8c-4,-1 -1,1 -6,-3 -11,-7 -8,-41 -8,-55 0,-45 3,-26 12,-42 4,-5 4,-9 6,-12 11,-18 12,-15 19,-18 16,-6 3,-11 22,-13 20,-2 46,-2 67,-1 2,3 8,8 10,10 6,5 10,5 18,5 11,18 7,8 12,14 4,5 2,4 5,9 5,13 13,3 12,48 -1,31 5,68 -25,70 -4,14 -3,13 -17,16zm934 536c17,-2 43,0 62,0 10,-1 21,-2 31,-2 11,0 21,0 25,5 10,10 -5,88 7,101 -21,22 -3,4 -20,14 -6,3 -3,5 -10,7 -40,8 -113,4 -156,4 -16,0 -39,0 -41,-26 -30,-2 -20,-7 -27,-13 -8,-6 -6,3 -13,-7 -2,-3 0,-1 -3,-4l-9 -5c-3,-29 -13,-1 -16,-41 -14,-10 -10,-16 -12,-39l-9 -1c-7,-12 -5,-465 -4,-551 0,-24 -2,-53 0,-77 9,-7 7,-3 19,-7 8,-3 7,-5 13,-10 0,0 106,-5 116,3 12,11 9,21 9,29 0,8 2,12 2,18 0,5 -2,11 -3,17l1 115c7,3 12,3 20,3l60 0c59,0 75,-8 78,41 0,13 0,26 0,40 -1,12 1,26 -2,38 -2,6 -13,20 -17,23l-140 0 2 267c7,11 3,2 8,16 7,21 8,11 15,23l5 6c5,6 5,7 9,13zm360 -324l0 9c-3,1 -4,1 -6,2 -4,3 -3,2 -6,6 -4,8 0,6 -7,15 -13,16 0,12 -16,22l-3 29 244 0c-2,-11 -3,-19 0,-30 -1,0 -1,-1 -2,-1 0,0 -1,-1 -1,-1 0,0 -4,-2 -4,-2 -4,-3 -5,-4 -8,-6l0 -29c-4,1 -3,2 -2,-2 -9,1 -12,-2 -19,-13 -5,0 -6,0 -10,-3 -7,-5 -3,-3 -5,-8 -4,1 -3,2 -3,-3l-1 1c-14,-1 -4,0 -6,-3 -5,2 -5,3 -3,-2 -5,2 -3,2 -1,-3 -4,-1 -2,5 -3,-4l-93 0c-9,4 -1,3 -8,9 -5,5 -4,0 -11,7 -4,3 -2,6 -9,8 -5,2 -12,1 -17,2z"/>
  </g>
 </g>
</svg>
