<?xml version="1.0" encoding="UTF-8"?>
<!DOCTYPE svg PUBLIC "-//W3C//DTD SVG 1.1//EN" "http://www.w3.org/Graphics/SVG/1.1/DTD/svg11.dtd">
<!-- Creator: CorelDRAW Home & Student X7 -->
<svg xmlns="http://www.w3.org/2000/svg" xml:space="preserve" width="30.001mm" height="30.001mm" version="1.1" style="shape-rendering:geometricPrecision; text-rendering:geometricPrecision; image-rendering:optimizeQuality; fill-rule:evenodd; clip-rule:evenodd"
viewBox="0 0 1735 1735"
 xmlns:xlink="http://www.w3.org/1999/xlink">
 <defs>
  <style type="text/css">
   <![CDATA[
    .str0 {stroke:#373435;stroke-width:0.0578248}
    .fil3 {fill:#02BBE2}
    .fil0 {fill:#1196FD}
    .fil2 {fill:#FCB913}
    .fil1 {fill:#FEFFFF}
   ]]>
  </style>
 </defs>
 <g id="__x0023_Layer_x0020_1">
  <metadata id="CorelCorpID_0Corel-Layer"/>
  <g id="_636071440">
   <rect class="fil0 str0" width="1735" height="1735" rx="224" ry="212"/>
   <g>
    <path class="fil1" d="M1257 1006c-1,1 0,-2 0,0zm12 -117c-2,24 -18,62 -33,79 -3,5 -16,18 -22,8 -11,-18 5,-93 55,-87zm60 95c-2,-7 24,-128 27,-148 -48,-7 -94,-16 -140,1 -126,48 -105,257 -2,205 24,-12 32,-28 42,-36l-11 37c14,-1 102,-4 108,-6l9 -48 -33 -5z"/>
    <path class="fil1" d="M734 841l-24 0 -13 57 26 1c-1,14 -7,39 -10,54 -4,19 -7,38 -11,56 -3,18 -6,39 -12,55 -7,24 -16,24 -42,19l-16 62c36,12 91,2 115,-34 26,-39 26,-74 35,-122 6,-28 10,-63 17,-90 41,-1 32,6 39,-28 3,-10 6,-20 7,-30l-35 0c0,-11 6,-27 12,-34 9,-12 21,-8 35,-2l17 -63c-55,-14 -105,-1 -127,49 -3,7 -6,15 -8,23 -2,9 -3,19 -5,27z"/>
    <path class="fil1" d="M568 925c1,-15 25,-47 40,-32 10,9 -2,21 -8,25 -9,6 -20,8 -32,7zm-8 48c37,0 62,-4 89,-21 17,-10 42,-39 34,-72 -14,-56 -99,-61 -145,-20 -21,18 -35,36 -46,63 -23,57 -12,126 66,131 41,3 61,-8 92,-15l0 -59c-17,4 -32,9 -50,12 -20,2 -40,3 -40,-19z"/>
    <path class="fil1" d="M320 838c-11,-7 -47,-5 -60,-2 -18,3 -34,10 -47,19 -40,29 -70,84 -60,137 17,88 122,62 128,57 2,-1 2,-14 3,-17 0,-5 1,-10 2,-16 1,-11 3,-23 3,-33 -15,3 -31,6 -45,-2 -18,-13 -12,-55 13,-72 18,-12 24,-8 43,-4l20 -67z"/>
    <path class="fil1" d="M441 838c-33,0 -73,0 -105,6 -3,3 -3,7 -4,12l-7 38c9,0 27,1 34,5l-29 150 77 0c4,-31 10,-62 20,-89 11,-31 23,-54 58,-52l19 -71c-20,-6 -30,-6 -45,6 -8,7 -15,15 -21,25 -1,1 -2,3 -3,4l-4 5 10 -39z"/>
    <path class="fil1" d="M1127 833c-33,-4 -55,-6 -86,6 -24,10 -41,25 -47,51 -7,33 9,56 26,69 4,3 23,23 6,29 -15,5 -30,-3 -43,-5l-13 61c18,9 65,7 88,-1 22,-8 46,-28 52,-49 9,-30 -1,-53 -21,-73 -6,-6 -24,-16 -16,-29 8,-11 26,-6 39,-4l15 -55z"/>
    <path class="fil1" d="M973 842c-42,-4 -69,-4 -110,3l-9 49c13,1 21,2 34,4l-30 152 76 0 39 -208z"/>
    <path class="fil1" d="M939 736c-62,12 -41,103 18,90 59,-13 41,-102 -18,-90z"/>
    <path class="fil2" d="M1290 796l113 -33c-1,-5 -3,-11 -3,-17 -1,-7 1,-13 0,-19l-110 -1c-6,23 -5,48 0,70z"/>
    <path class="fil2" d="M1440 905c3,-9 5,-24 8,-35 2,-11 5,-23 7,-34 6,-26 9,-28 1,-30 -13,-2 -20,-6 -29,-12 -5,6 -54,93 -55,98 10,3 19,7 31,10 12,2 24,3 37,3z"/>
    <path class="fil2" d="M1489 803c5,14 9,27 14,41 2,7 4,13 7,20 1,5 4,15 8,18 17,-15 31,-20 47,-49 -3,-6 -6,-9 -10,-15l-20 -29c-3,-4 -7,-10 -11,-14l-1 1c0,0 0,1 -1,1 -6,6 -10,18 -33,26z"/>
    <path class="fil2" d="M1343 647c19,13 54,44 69,53 3,-2 8,-9 13,-12 4,-4 13,-8 16,-11l-39 -58c-15,1 -41,13 -53,22l-6 6z"/>
    <path class="fil3" d="M1269 889c-50,-6 -66,69 -55,87 6,10 19,-3 22,-8 15,-17 31,-55 33,-79z"/>
    <path class="fil2" d="M1520 699c8,15 13,21 13,43l50 0c3,-7 -4,-26 -6,-31 -4,-10 -8,-19 -13,-26l-44 14z"/>
    <path class="fil2" d="M1468 673c16,1 20,4 32,9l20 -43c-12,-6 -35,-21 -52,-20l0 54z"/>
    <path class="fil3" d="M568 925c12,1 23,-1 32,-7 6,-4 18,-16 8,-25 -15,-15 -39,17 -40,32z"/>
   </g>
  </g>
 </g>
</svg>
